<mxfile host="65bd71144e">
    <diagram id="6rIivcWOChTCRzpqusZg" name="第 1 页">
        <mxGraphModel dx="1204" dy="830" grid="1" gridSize="10" guides="1" tooltips="1" connect="1" arrows="1" fold="1" page="1" pageScale="1" pageWidth="1654" pageHeight="2336" math="0" shadow="0">
            <root>
                <mxCell id="0"/>
                <mxCell id="1" parent="0"/>
                <mxCell id="7" style="edgeStyle=none;html=1;" edge="1" parent="1" source="2" target="4">
                    <mxGeometry relative="1" as="geometry"/>
                </mxCell>
                <mxCell id="2" value="输入用户名" style="rounded=1;whiteSpace=wrap;html=1;" vertex="1" parent="1">
                    <mxGeometry x="420" y="130" width="120" height="60" as="geometry"/>
                </mxCell>
                <mxCell id="8" style="edgeStyle=none;html=1;exitX=1;exitY=0.5;exitDx=0;exitDy=0;entryX=1;entryY=0.5;entryDx=0;entryDy=0;" edge="1" parent="1" source="4" target="2">
                    <mxGeometry relative="1" as="geometry">
                        <mxPoint x="630" y="160" as="targetPoint"/>
                        <Array as="points">
                            <mxPoint x="630" y="300"/>
                            <mxPoint x="630" y="160"/>
                        </Array>
                    </mxGeometry>
                </mxCell>
                <mxCell id="10" value="yes" style="edgeLabel;html=1;align=center;verticalAlign=middle;resizable=0;points=[];" vertex="1" connectable="0" parent="8">
                    <mxGeometry x="-0.0765" y="1" relative="1" as="geometry">
                        <mxPoint as="offset"/>
                    </mxGeometry>
                </mxCell>
                <mxCell id="4" value="是否为空" style="rhombus;whiteSpace=wrap;html=1;" vertex="1" parent="1">
                    <mxGeometry x="380" y="260" width="200" height="80" as="geometry"/>
                </mxCell>
                <mxCell id="5" value="" style="endArrow=classic;html=1;exitX=0.5;exitY=1;exitDx=0;exitDy=0;entryX=0.5;entryY=0;entryDx=0;entryDy=0;" edge="1" parent="1" source="4">
                    <mxGeometry width="50" height="50" relative="1" as="geometry">
                        <mxPoint x="500" y="420" as="sourcePoint"/>
                        <mxPoint x="480" y="400" as="targetPoint"/>
                    </mxGeometry>
                </mxCell>
                <mxCell id="11" value="no" style="edgeLabel;html=1;align=center;verticalAlign=middle;resizable=0;points=[];" vertex="1" connectable="0" parent="5">
                    <mxGeometry x="-0.2313" relative="1" as="geometry">
                        <mxPoint as="offset"/>
                    </mxGeometry>
                </mxCell>
                <mxCell id="15" style="edgeStyle=none;html=1;entryX=0.5;entryY=0;entryDx=0;entryDy=0;" edge="1" parent="1" source="12" target="13">
                    <mxGeometry relative="1" as="geometry"/>
                </mxCell>
                <mxCell id="17" value="yes" style="edgeLabel;html=1;align=center;verticalAlign=middle;resizable=0;points=[];" vertex="1" connectable="0" parent="15">
                    <mxGeometry x="-0.2545" y="-1" relative="1" as="geometry">
                        <mxPoint as="offset"/>
                    </mxGeometry>
                </mxCell>
                <mxCell id="23" style="edgeStyle=none;html=1;" edge="1" parent="1" source="12">
                    <mxGeometry relative="1" as="geometry">
                        <mxPoint x="680" y="650" as="targetPoint"/>
                        <Array as="points">
                            <mxPoint x="680" y="435"/>
                        </Array>
                    </mxGeometry>
                </mxCell>
                <mxCell id="24" value="no" style="edgeLabel;html=1;align=center;verticalAlign=middle;resizable=0;points=[];" vertex="1" connectable="0" parent="23">
                    <mxGeometry x="-0.693" relative="1" as="geometry">
                        <mxPoint as="offset"/>
                    </mxGeometry>
                </mxCell>
                <mxCell id="12" value="用户名是否存在" style="rhombus;whiteSpace=wrap;html=1;" vertex="1" parent="1">
                    <mxGeometry x="405" y="400" width="155" height="70" as="geometry"/>
                </mxCell>
                <mxCell id="16" value="" style="edgeStyle=none;html=1;" edge="1" parent="1" source="13" target="14">
                    <mxGeometry relative="1" as="geometry"/>
                </mxCell>
                <mxCell id="13" value="使用数组记录信息" style="rounded=0;whiteSpace=wrap;html=1;" vertex="1" parent="1">
                    <mxGeometry x="390" y="520" width="180" height="60" as="geometry"/>
                </mxCell>
                <mxCell id="19" value="" style="edgeStyle=none;html=1;" edge="1" parent="1" source="14" target="18">
                    <mxGeometry relative="1" as="geometry"/>
                </mxCell>
                <mxCell id="22" style="edgeStyle=none;html=1;exitX=1;exitY=0.5;exitDx=0;exitDy=0;entryX=0.56;entryY=-0.048;entryDx=0;entryDy=0;entryPerimeter=0;" edge="1" parent="1" source="14" target="21">
                    <mxGeometry relative="1" as="geometry">
                        <mxPoint x="680" y="650" as="targetPoint"/>
                        <Array as="points">
                            <mxPoint x="677" y="650"/>
                        </Array>
                    </mxGeometry>
                </mxCell>
                <mxCell id="25" value="yes" style="edgeLabel;html=1;align=center;verticalAlign=middle;resizable=0;points=[];" vertex="1" connectable="0" parent="22">
                    <mxGeometry x="-0.6835" y="-2" relative="1" as="geometry">
                        <mxPoint as="offset"/>
                    </mxGeometry>
                </mxCell>
                <mxCell id="14" value="账户是否被锁定？" style="rhombus;whiteSpace=wrap;html=1;" vertex="1" parent="1">
                    <mxGeometry x="367.5" y="610" width="230" height="80" as="geometry"/>
                </mxCell>
                <mxCell id="18" value="进入输入密码模块" style="rounded=0;whiteSpace=wrap;html=1;" vertex="1" parent="1">
                    <mxGeometry x="420" y="730" width="120" height="60" as="geometry"/>
                </mxCell>
                <mxCell id="21" value="Exit" style="rounded=1;whiteSpace=wrap;html=1;" vertex="1" parent="1">
                    <mxGeometry x="610" y="730" width="120" height="60" as="geometry"/>
                </mxCell>
                <mxCell id="26" value="no" style="text;html=1;align=center;verticalAlign=middle;resizable=0;points=[];autosize=1;strokeColor=none;fillColor=none;" vertex="1" parent="1">
                    <mxGeometry x="465" y="690" width="30" height="20" as="geometry"/>
                </mxCell>
                <mxCell id="32" value="" style="edgeStyle=none;html=1;" edge="1" parent="1" source="27" target="30">
                    <mxGeometry relative="1" as="geometry"/>
                </mxCell>
                <mxCell id="27" value="输入密码" style="rounded=1;whiteSpace=wrap;html=1;" vertex="1" parent="1">
                    <mxGeometry x="367.5" y="900" width="120" height="60" as="geometry"/>
                </mxCell>
                <mxCell id="47" value="" style="edgeStyle=none;html=1;" edge="1" parent="1" source="28" target="37">
                    <mxGeometry relative="1" as="geometry"/>
                </mxCell>
                <mxCell id="48" style="edgeStyle=none;html=1;entryX=0.5;entryY=1;entryDx=0;entryDy=0;" edge="1" parent="1" source="28" target="49">
                    <mxGeometry relative="1" as="geometry">
                        <mxPoint x="850" y="1310" as="targetPoint"/>
                        <Array as="points">
                            <mxPoint x="850" y="1330"/>
                        </Array>
                    </mxGeometry>
                </mxCell>
                <mxCell id="28" value="if flag&amp;lt;3&amp;nbsp;" style="rhombus;whiteSpace=wrap;html=1;" vertex="1" parent="1">
                    <mxGeometry x="342.5" y="1290" width="170" height="80" as="geometry"/>
                </mxCell>
                <mxCell id="43" value="" style="edgeStyle=none;html=1;" edge="1" parent="1" source="30" target="31">
                    <mxGeometry relative="1" as="geometry"/>
                </mxCell>
                <mxCell id="30" value="设置flag存储输入密码次数&lt;br&gt;初始flag = 1；" style="rounded=0;whiteSpace=wrap;html=1;" vertex="1" parent="1">
                    <mxGeometry x="351.25" y="1010" width="152.5" height="60" as="geometry"/>
                </mxCell>
                <mxCell id="44" value="" style="edgeStyle=none;html=1;" edge="1" parent="1" source="31" target="28">
                    <mxGeometry relative="1" as="geometry"/>
                </mxCell>
                <mxCell id="53" value="No" style="edgeLabel;html=1;align=center;verticalAlign=middle;resizable=0;points=[];" vertex="1" connectable="0" parent="44">
                    <mxGeometry x="-0.4674" y="-1" relative="1" as="geometry">
                        <mxPoint as="offset"/>
                    </mxGeometry>
                </mxCell>
                <mxCell id="56" value="" style="edgeStyle=none;html=1;" edge="1" parent="1" source="31" target="64">
                    <mxGeometry relative="1" as="geometry">
                        <Array as="points">
                            <mxPoint x="180" y="1190"/>
                        </Array>
                    </mxGeometry>
                </mxCell>
                <mxCell id="63" value="yes" style="edgeLabel;html=1;align=center;verticalAlign=middle;resizable=0;points=[];" vertex="1" connectable="0" parent="56">
                    <mxGeometry x="-0.3368" y="2" relative="1" as="geometry">
                        <mxPoint as="offset"/>
                    </mxGeometry>
                </mxCell>
                <mxCell id="31" value="if 输入密码匹配" style="rhombus;whiteSpace=wrap;html=1;" vertex="1" parent="1">
                    <mxGeometry x="320.63" y="1150" width="211.25" height="80" as="geometry"/>
                </mxCell>
                <mxCell id="57" value="yes" style="edgeStyle=none;html=1;" edge="1" parent="1" source="37" target="40">
                    <mxGeometry relative="1" as="geometry"/>
                </mxCell>
                <mxCell id="59" value="no" style="edgeStyle=none;html=1;" edge="1" parent="1" source="37" target="42">
                    <mxGeometry relative="1" as="geometry"/>
                </mxCell>
                <mxCell id="37" value="if 用户身份 == 管理员" style="rhombus;whiteSpace=wrap;html=1;" vertex="1" parent="1">
                    <mxGeometry x="320.63" y="1400" width="210" height="80" as="geometry"/>
                </mxCell>
                <mxCell id="58" value="" style="edgeStyle=none;html=1;" edge="1" parent="1" source="40" target="41">
                    <mxGeometry relative="1" as="geometry"/>
                </mxCell>
                <mxCell id="40" value="锁定该管理员" style="rounded=0;whiteSpace=wrap;html=1;" vertex="1" parent="1">
                    <mxGeometry x="588.75" y="1410" width="120" height="60" as="geometry"/>
                </mxCell>
                <mxCell id="62" value="" style="edgeStyle=none;html=1;" edge="1" parent="1" source="41" target="60">
                    <mxGeometry relative="1" as="geometry"/>
                </mxCell>
                <mxCell id="41" value="锁定该脚本" style="rounded=0;whiteSpace=wrap;html=1;" vertex="1" parent="1">
                    <mxGeometry x="588.75" y="1510" width="120" height="60" as="geometry"/>
                </mxCell>
                <mxCell id="61" value="" style="edgeStyle=none;html=1;" edge="1" parent="1" source="42" target="60">
                    <mxGeometry relative="1" as="geometry"/>
                </mxCell>
                <mxCell id="42" value="锁定该普通用户" style="rounded=0;whiteSpace=wrap;html=1;" vertex="1" parent="1">
                    <mxGeometry x="365.63" y="1510" width="120" height="60" as="geometry"/>
                </mxCell>
                <mxCell id="51" value="" style="edgeStyle=none;html=1;" edge="1" parent="1" source="49" target="50">
                    <mxGeometry relative="1" as="geometry"/>
                </mxCell>
                <mxCell id="49" value="输入密码" style="rounded=0;whiteSpace=wrap;html=1;" vertex="1" parent="1">
                    <mxGeometry x="790" y="1150" width="120" height="60" as="geometry"/>
                </mxCell>
                <mxCell id="52" value="" style="edgeStyle=none;html=1;" edge="1" parent="1" source="50">
                    <mxGeometry relative="1" as="geometry">
                        <mxPoint x="426" y="1120" as="targetPoint"/>
                        <Array as="points">
                            <mxPoint x="550" y="1120"/>
                        </Array>
                    </mxGeometry>
                </mxCell>
                <mxCell id="50" value="flag ++；" style="rounded=0;whiteSpace=wrap;html=1;" vertex="1" parent="1">
                    <mxGeometry x="630" y="1150" width="120" height="60" as="geometry"/>
                </mxCell>
                <mxCell id="55" value="进入管理员系统" style="rounded=1;whiteSpace=wrap;html=1;" vertex="1" parent="1">
                    <mxGeometry x="40" y="1380" width="120" height="60" as="geometry"/>
                </mxCell>
                <mxCell id="60" value="Exit" style="rounded=1;whiteSpace=wrap;html=1;" vertex="1" parent="1">
                    <mxGeometry x="477.5" y="1620" width="120" height="60" as="geometry"/>
                </mxCell>
                <mxCell id="66" value="" style="edgeStyle=none;html=1;" edge="1" parent="1" source="64" target="65">
                    <mxGeometry relative="1" as="geometry"/>
                </mxCell>
                <mxCell id="67" value="no" style="edgeStyle=none;html=1;" edge="1" parent="1" source="64" target="65">
                    <mxGeometry relative="1" as="geometry"/>
                </mxCell>
                <mxCell id="69" value="yes" style="edgeStyle=none;html=1;" edge="1" parent="1" source="64" target="55">
                    <mxGeometry relative="1" as="geometry"/>
                </mxCell>
                <mxCell id="64" value="if 用户身份 = 管理员；" style="rhombus;whiteSpace=wrap;html=1;" vertex="1" parent="1">
                    <mxGeometry x="95" y="1230" width="170" height="80" as="geometry"/>
                </mxCell>
                <mxCell id="65" value="进入用户系统" style="rounded=1;whiteSpace=wrap;html=1;" vertex="1" parent="1">
                    <mxGeometry x="190" y="1380" width="120" height="60" as="geometry"/>
                </mxCell>
                <mxCell id="70" value="" style="rounded=1;whiteSpace=wrap;html=1;" vertex="1" parent="1">
                    <mxGeometry x="400" y="2060" width="120" height="60" as="geometry"/>
                </mxCell>
            </root>
        </mxGraphModel>
    </diagram>
    <diagram id="pQvGZfEvxqfjEqo4XrHD" name="第 2 页">
        <mxGraphModel dx="1204" dy="830" grid="1" gridSize="10" guides="1" tooltips="1" connect="1" arrows="1" fold="1" page="1" pageScale="1" pageWidth="1654" pageHeight="2336" math="0" shadow="0">
            <root>
                <mxCell id="MfzT1gGaSZd1SPtmzgCw-0"/>
                <mxCell id="MfzT1gGaSZd1SPtmzgCw-1" parent="MfzT1gGaSZd1SPtmzgCw-0"/>
                <mxCell id="MfzT1gGaSZd1SPtmzgCw-9" value="3" style="edgeStyle=none;html=1;entryX=0.5;entryY=0;entryDx=0;entryDy=0;" edge="1" parent="MfzT1gGaSZd1SPtmzgCw-1" source="MfzT1gGaSZd1SPtmzgCw-3" target="MfzT1gGaSZd1SPtmzgCw-6">
                    <mxGeometry relative="1" as="geometry"/>
                </mxCell>
                <mxCell id="MfzT1gGaSZd1SPtmzgCw-10" value="2" style="edgeStyle=none;html=1;entryX=0.5;entryY=0;entryDx=0;entryDy=0;" edge="1" parent="MfzT1gGaSZd1SPtmzgCw-1" source="MfzT1gGaSZd1SPtmzgCw-3" target="MfzT1gGaSZd1SPtmzgCw-7">
                    <mxGeometry relative="1" as="geometry"/>
                </mxCell>
                <mxCell id="MfzT1gGaSZd1SPtmzgCw-11" value="1" style="edgeStyle=none;html=1;entryX=0.5;entryY=0;entryDx=0;entryDy=0;" edge="1" parent="MfzT1gGaSZd1SPtmzgCw-1" source="MfzT1gGaSZd1SPtmzgCw-3" target="MfzT1gGaSZd1SPtmzgCw-8">
                    <mxGeometry relative="1" as="geometry"/>
                </mxCell>
                <mxCell id="MfzT1gGaSZd1SPtmzgCw-12" value="4" style="edgeStyle=none;html=1;entryX=0.5;entryY=0;entryDx=0;entryDy=0;" edge="1" parent="MfzT1gGaSZd1SPtmzgCw-1" source="MfzT1gGaSZd1SPtmzgCw-3" target="MfzT1gGaSZd1SPtmzgCw-5">
                    <mxGeometry relative="1" as="geometry"/>
                </mxCell>
                <mxCell id="MfzT1gGaSZd1SPtmzgCw-13" value="5" style="edgeStyle=none;html=1;entryX=0.5;entryY=0;entryDx=0;entryDy=0;" edge="1" parent="MfzT1gGaSZd1SPtmzgCw-1" source="MfzT1gGaSZd1SPtmzgCw-3" target="MfzT1gGaSZd1SPtmzgCw-4">
                    <mxGeometry relative="1" as="geometry"/>
                </mxCell>
                <mxCell id="MfzT1gGaSZd1SPtmzgCw-3" value="输入操作数以开始操作" style="rounded=1;whiteSpace=wrap;html=1;" vertex="1" parent="MfzT1gGaSZd1SPtmzgCw-1">
                    <mxGeometry x="490" y="80" width="140" height="60" as="geometry"/>
                </mxCell>
                <mxCell id="MfzT1gGaSZd1SPtmzgCw-4" value="退出系统" style="rounded=0;whiteSpace=wrap;html=1;" vertex="1" parent="MfzT1gGaSZd1SPtmzgCw-1">
                    <mxGeometry x="910" y="200" width="120" height="60" as="geometry"/>
                </mxCell>
                <mxCell id="MfzT1gGaSZd1SPtmzgCw-5" value="&lt;span&gt;权限查看&lt;/span&gt;" style="rounded=0;whiteSpace=wrap;html=1;" vertex="1" parent="MfzT1gGaSZd1SPtmzgCw-1">
                    <mxGeometry x="730" y="200" width="120" height="60" as="geometry"/>
                </mxCell>
                <mxCell id="MfzT1gGaSZd1SPtmzgCw-6" value="统计文档信息" style="rounded=0;whiteSpace=wrap;html=1;" vertex="1" parent="MfzT1gGaSZd1SPtmzgCw-1">
                    <mxGeometry x="560" y="200" width="120" height="60" as="geometry"/>
                </mxCell>
                <mxCell id="MfzT1gGaSZd1SPtmzgCw-7" value="新建目录" style="rounded=0;whiteSpace=wrap;html=1;" vertex="1" parent="MfzT1gGaSZd1SPtmzgCw-1">
                    <mxGeometry x="390" y="200" width="120" height="60" as="geometry"/>
                </mxCell>
                <mxCell id="MfzT1gGaSZd1SPtmzgCw-8" value="新建文本文件" style="rounded=0;whiteSpace=wrap;html=1;" vertex="1" parent="MfzT1gGaSZd1SPtmzgCw-1">
                    <mxGeometry x="220" y="200" width="120" height="60" as="geometry"/>
                </mxCell>
                <mxCell id="MfzT1gGaSZd1SPtmzgCw-17" value="" style="edgeStyle=none;html=1;" edge="1" parent="MfzT1gGaSZd1SPtmzgCw-1" source="MfzT1gGaSZd1SPtmzgCw-14" target="MfzT1gGaSZd1SPtmzgCw-16">
                    <mxGeometry relative="1" as="geometry"/>
                </mxCell>
                <mxCell id="MfzT1gGaSZd1SPtmzgCw-14" value="查看文件权限" style="rounded=1;whiteSpace=wrap;html=1;" vertex="1" parent="MfzT1gGaSZd1SPtmzgCw-1">
                    <mxGeometry x="412.5" y="450" width="120" height="60" as="geometry"/>
                </mxCell>
                <mxCell id="DuuYTa141mIgcRa3wCtW-11" value="no" style="edgeStyle=none;html=1;" edge="1" parent="MfzT1gGaSZd1SPtmzgCw-1" source="MfzT1gGaSZd1SPtmzgCw-15" target="DuuYTa141mIgcRa3wCtW-4">
                    <mxGeometry relative="1" as="geometry"/>
                </mxCell>
                <mxCell id="DuuYTa141mIgcRa3wCtW-12" style="edgeStyle=none;html=1;entryX=1;entryY=0.5;entryDx=0;entryDy=0;" edge="1" parent="MfzT1gGaSZd1SPtmzgCw-1" source="MfzT1gGaSZd1SPtmzgCw-15" target="MfzT1gGaSZd1SPtmzgCw-16">
                    <mxGeometry relative="1" as="geometry">
                        <mxPoint x="750" y="710" as="targetPoint"/>
                        <Array as="points">
                            <mxPoint x="650" y="690"/>
                            <mxPoint x="650" y="580"/>
                        </Array>
                    </mxGeometry>
                </mxCell>
                <mxCell id="DuuYTa141mIgcRa3wCtW-13" value="yes" style="edgeLabel;html=1;align=center;verticalAlign=middle;resizable=0;points=[];" vertex="1" connectable="0" parent="DuuYTa141mIgcRa3wCtW-12">
                    <mxGeometry x="-0.089" y="1" relative="1" as="geometry">
                        <mxPoint as="offset"/>
                    </mxGeometry>
                </mxCell>
                <mxCell id="MfzT1gGaSZd1SPtmzgCw-15" value="文件名输入是否为空" style="rhombus;whiteSpace=wrap;html=1;" vertex="1" parent="MfzT1gGaSZd1SPtmzgCw-1">
                    <mxGeometry x="367.5" y="650" width="210" height="80" as="geometry"/>
                </mxCell>
                <mxCell id="MfzT1gGaSZd1SPtmzgCw-18" value="" style="edgeStyle=none;html=1;" edge="1" parent="MfzT1gGaSZd1SPtmzgCw-1" source="MfzT1gGaSZd1SPtmzgCw-16" target="MfzT1gGaSZd1SPtmzgCw-15">
                    <mxGeometry relative="1" as="geometry"/>
                </mxCell>
                <mxCell id="MfzT1gGaSZd1SPtmzgCw-16" value="输入文件名" style="rounded=0;whiteSpace=wrap;html=1;" vertex="1" parent="MfzT1gGaSZd1SPtmzgCw-1">
                    <mxGeometry x="410" y="550" width="120" height="60" as="geometry"/>
                </mxCell>
                <mxCell id="DuuYTa141mIgcRa3wCtW-15" value="" style="edgeStyle=none;html=1;" edge="1" parent="MfzT1gGaSZd1SPtmzgCw-1" source="DuuYTa141mIgcRa3wCtW-4" target="DuuYTa141mIgcRa3wCtW-14">
                    <mxGeometry relative="1" as="geometry"/>
                </mxCell>
                <mxCell id="DuuYTa141mIgcRa3wCtW-26" value="yes" style="edgeStyle=none;html=1;" edge="1" parent="MfzT1gGaSZd1SPtmzgCw-1" source="DuuYTa141mIgcRa3wCtW-4" target="DuuYTa141mIgcRa3wCtW-25">
                    <mxGeometry relative="1" as="geometry"/>
                </mxCell>
                <mxCell id="DuuYTa141mIgcRa3wCtW-33" value="no" style="edgeStyle=none;html=1;" edge="1" parent="MfzT1gGaSZd1SPtmzgCw-1" source="DuuYTa141mIgcRa3wCtW-4" target="DuuYTa141mIgcRa3wCtW-14">
                    <mxGeometry relative="1" as="geometry"/>
                </mxCell>
                <mxCell id="DuuYTa141mIgcRa3wCtW-4" value="文件是否存在" style="rhombus;whiteSpace=wrap;html=1;" vertex="1" parent="MfzT1gGaSZd1SPtmzgCw-1">
                    <mxGeometry x="395" y="800" width="155" height="70" as="geometry"/>
                </mxCell>
                <mxCell id="DuuYTa141mIgcRa3wCtW-14" value="文件不存在，无法查看" style="rounded=0;whiteSpace=wrap;html=1;" vertex="1" parent="MfzT1gGaSZd1SPtmzgCw-1">
                    <mxGeometry x="640" y="805" width="160" height="60" as="geometry"/>
                </mxCell>
                <mxCell id="DuuYTa141mIgcRa3wCtW-35" value="" style="edgeStyle=none;html=1;" edge="1" parent="MfzT1gGaSZd1SPtmzgCw-1" source="DuuYTa141mIgcRa3wCtW-25" target="DuuYTa141mIgcRa3wCtW-34">
                    <mxGeometry relative="1" as="geometry"/>
                </mxCell>
                <mxCell id="DuuYTa141mIgcRa3wCtW-25" value="读入文件权限" style="rounded=0;whiteSpace=wrap;html=1;" vertex="1" parent="MfzT1gGaSZd1SPtmzgCw-1">
                    <mxGeometry x="412.5" y="940" width="120" height="60" as="geometry"/>
                </mxCell>
                <mxCell id="DuuYTa141mIgcRa3wCtW-32" value="" style="edgeStyle=none;html=1;" edge="1" parent="MfzT1gGaSZd1SPtmzgCw-1" source="DuuYTa141mIgcRa3wCtW-29" target="DuuYTa141mIgcRa3wCtW-31">
                    <mxGeometry relative="1" as="geometry"/>
                </mxCell>
                <mxCell id="DuuYTa141mIgcRa3wCtW-29" value="退出登录" style="rounded=1;whiteSpace=wrap;html=1;" vertex="1" parent="MfzT1gGaSZd1SPtmzgCw-1">
                    <mxGeometry x="910" y="1270" width="120" height="60" as="geometry"/>
                </mxCell>
                <mxCell id="DuuYTa141mIgcRa3wCtW-31" value="退出登录成功" style="rounded=1;whiteSpace=wrap;html=1;" vertex="1" parent="MfzT1gGaSZd1SPtmzgCw-1">
                    <mxGeometry x="910" y="1390" width="120" height="60" as="geometry"/>
                </mxCell>
                <mxCell id="DuuYTa141mIgcRa3wCtW-34" value="写出信息，显示完成" style="rounded=0;whiteSpace=wrap;html=1;" vertex="1" parent="MfzT1gGaSZd1SPtmzgCw-1">
                    <mxGeometry x="412.5" y="1050" width="120" height="60" as="geometry"/>
                </mxCell>
            </root>
        </mxGraphModel>
    </diagram>
</mxfile>